<?xml version="1.0" standalone="no"?>
<!DOCTYPE svg PUBLIC "-//W3C//DTD SVG 20010904//EN"
 "http://www.w3.org/TR/2001/REC-SVG-20010904/DTD/svg10.dtd">
<svg version="1.0" xmlns="http://www.w3.org/2000/svg"
 width="300.000000pt" height="300.000000pt" viewBox="0 0 300.000000 300.000000"
 preserveAspectRatio="xMidYMid meet">
<metadata>
Created by potrace 1.14, written by Peter Selinger 2001-2017
</metadata>
<g transform="translate(0.000000,300.000000) scale(0.100000,-0.100000)"
fill="#000000" stroke="none">
<path d="M1954 2791 c-23 -10 -54 -36 -70 -57 -28 -36 -29 -42 -32 -163 -1
-69 -3 -162 -5 -206 l-2 -79 -140 -1 c-145 -1 -175 -8 -195 -45 -16 -30 -12
-75 11 -101 21 -24 21 -24 238 -24 197 0 219 2 236 18 26 26 30 67 30 295 l0
203 45 -48 c69 -74 181 -199 290 -323 43 -49 137 -155 155 -174 19 -21 112
-126 176 -199 16 -17 29 -35 29 -38 0 -7 -24 -36 -74 -89 -18 -19 -72 -80
-121 -135 -48 -55 -97 -110 -109 -121 -11 -12 -41 -45 -66 -75 -25 -29 -58
-67 -75 -85 -16 -17 -52 -58 -80 -89 -27 -32 -57 -65 -65 -75 -97 -110 -100
-112 -101 -94 -1 10 -2 111 -3 224 -1 113 -5 215 -10 228 -16 48 -35 50 -436
51 -206 0 -387 0 -402 0 l-28 1 0 190 c0 237 -10 268 -98 314 -82 42 -192 -2
-295 -118 -34 -39 -76 -86 -94 -105 -18 -18 -46 -51 -63 -71 -17 -21 -52 -61
-78 -88 -26 -28 -66 -72 -89 -99 -22 -26 -52 -60 -65 -74 -12 -14 -50 -56 -83
-94 -33 -37 -71 -80 -85 -95 -104 -112 -100 -104 -100 -201 0 -56 4 -92 12
-101 41 -44 191 -213 251 -282 10 -12 48 -54 85 -94 36 -41 74 -83 84 -95 11
-12 33 -38 51 -57 18 -19 64 -71 102 -115 115 -131 151 -164 211 -192 67 -30
116 -28 174 10 70 47 80 85 80 300 l0 187 38 1 c20 0 84 2 142 3 110 2 140 11
158 50 15 34 4 79 -26 103 -25 22 -33 22 -227 20 -110 -1 -207 -4 -215 -7 -39
-13 -45 -51 -45 -286 l0 -226 -50 55 c-112 122 -161 177 -156 177 3 0 -2 6
-11 13 -8 6 -57 59 -108 117 -94 106 -194 219 -240 270 -42 47 -94 105 -114
128 -19 21 -18 22 16 64 20 24 53 62 74 84 33 35 86 95 161 180 18 22 132 149
168 188 11 12 47 53 80 91 33 37 75 84 94 104 18 20 38 43 45 51 41 54 42 50
40 -178 -1 -247 4 -273 58 -291 21 -7 159 -10 383 -10 193 0 369 0 393 -1 l42
0 0 -190 c0 -205 6 -235 53 -282 84 -84 216 -53 331 75 33 38 72 81 86 96 14
15 41 46 60 68 38 43 189 211 205 229 6 6 35 39 65 74 30 35 71 80 90 101 48
51 143 159 152 173 4 6 8 51 8 99 0 78 -3 91 -22 111 -13 12 -50 54 -83 91
-33 38 -69 79 -80 91 -11 12 -42 47 -70 79 -27 31 -63 71 -80 89 -16 17 -59
65 -95 106 -36 41 -74 84 -85 96 -11 11 -42 47 -70 79 -92 106 -160 170 -199
188 -60 28 -115 31 -162 8z"/>
</g>
</svg>
